<svg width="311" height="525" viewBox="0 0 311 525" fill="none" xmlns="http://www.w3.org/2000/svg">
<path d="M167.455 521.035C166.617 518.322 169.674 524 169.704 524.284C169.732 525.178 167.829 522.257 167.455 521.035ZM216.509 1.08716C221.051 -0.0480449 231.078 0.791591 235.993 2.05981C237.743 2.46027 236.834 1.56846 239.868 2.37622C240.176 2.46303 240.54 2.57257 240.953 2.70825C246.807 4.14976 264.295 13.5177 268.616 17.1086C265.543 15.3365 266.08 16.4313 268.362 17.8928C270.637 19.3884 269.223 17.4054 269.712 17.6291C270.317 17.7051 280.405 26.0567 281.987 27.7268C274.29 21.3046 275.67 23.2357 281.839 28.968C280.825 28.2476 279.809 27.5579 278.783 26.8899C282.743 29.8233 289.076 38.4135 290.93 40.7395C291.245 41.087 290.672 39.4259 290.847 39.6204C292.718 41.4766 296.97 49.4963 297.223 49.844C297.541 50.0794 296.029 46.4763 296.926 47.6243C297.12 47.8648 298.351 51.4723 299.989 54.8108C300.599 56.0555 300.728 55.0943 300.893 55.4045C301.007 55.6228 301.101 55.8154 301.179 55.9866C301.943 57.7215 301.01 57.0748 302.653 61.2854C303.779 64.3178 305.179 66.5446 306.054 70.5208C303.338 56.6498 306.711 69.4337 308.068 75.9104C308.271 76.9674 309.161 75.9136 309.532 82.4172C305.979 68.9902 309.397 86.4237 309.241 89.9221C309.242 90.1149 308.657 90.2093 308.703 91.9299C308.707 92.0761 309.112 91.8476 309.175 93.4534C309.292 108.497 308.928 98.8604 308.478 101.692C308.298 102.89 308.278 110.067 308.007 111.954C307.953 112.389 307.568 112.132 307.358 113.821C307.252 114.655 307.177 115.474 307.113 116.268C306.987 118.035 306.977 119.623 306.805 120.869C306.773 121.072 306.124 120.975 305.799 124.299C305.706 125.239 305.765 126.321 306.172 125.032C306.854 122.866 307.248 119.622 307.631 116.348C308.071 112.756 308.378 109.058 308.912 106.284C309.722 102.074 309.049 112.251 308.329 116.454C308.208 117.296 308.119 117.882 308.099 118.017C308.06 118.284 308.159 115.482 307.662 118.27C307.24 120.649 307.671 125.223 306.8 128.799C306.737 129.068 305.271 131.795 305.238 131.65C305.224 131.518 305.782 127.057 305.392 127.653C305.349 127.724 304.87 130.532 304.596 130.867C304.265 131.275 301.586 132.043 301.414 132.631C300.981 134.14 301.726 133.243 301.503 134.23C301.048 136.349 298.81 143.653 299.584 144.082C299.899 142.859 300.208 141.63 300.508 140.408C299.17 147.298 300.123 144.453 300.079 145.462C300.018 146.558 299.347 146.087 298.744 148.406C298.666 148.898 296.342 158.738 296.643 158.661C297.617 153.085 297.968 155.341 298.058 155.094C298.363 154.155 298.157 152.808 298.475 151.539C300.649 142.613 299.362 151.82 300.062 149.758C300.303 149.048 300.194 147.493 300.284 147.191C300.581 146.209 301.161 146.319 301.261 145.639C301.492 144.054 300.282 145.696 300.263 145.566C300.068 144.063 301.813 138.778 302.011 142.335C302.75 140.373 301.713 139.91 302.462 138.397C303.94 135.371 302.797 140.105 302.664 141.444C302.198 146.229 301.524 147.52 300.011 154.264C299.457 156.693 299.187 159.717 298.89 160.862C298.735 161.594 294.894 167.761 297.571 168.88C296.439 171.46 293.14 174.956 292.138 177.684C291.237 180.143 292.493 179.769 292.441 180.011C292.362 180.388 291.021 183.322 290.691 184.38C290.31 185.628 290.947 185.206 290.21 187.143C288.306 191.976 287.347 191.353 287.055 191.795C283.895 196.173 285.354 195.53 285.475 196.1C285.498 196.178 285.488 196.279 285.424 196.422C285.011 197.363 276.973 210.019 275.622 212.986C276.106 211.759 276.586 210.533 277.062 209.311C275.319 210.971 274.977 213.641 273.94 213.074C275.339 214.457 271.757 217.944 271.036 219.213C270.755 219.714 271.056 219.845 270.692 220.467C269.284 222.898 265.663 228.182 264.955 229.573C261.95 235.608 272.139 221.783 272.815 220.681C271.484 222.935 263.604 236.091 268.168 230.642C268.876 229.797 269.183 227.713 269.476 227.18C271.47 223.574 270.406 226.722 270.638 226.488C271.031 226.082 271.825 223.399 272.269 222.84C272.415 222.653 272.215 224.315 274.257 220.998C273.872 222.977 267.534 232.067 266.828 233.385C266.574 233.852 269.638 231.889 263.134 239.162C263.307 239.144 263.48 239.125 263.654 239.106C260.694 243.612 257.585 248.129 254.277 252.615C254.398 251.946 255.766 249.085 253.521 252.302C252.209 254.159 253.767 253.233 253.659 253.409C252.944 254.609 241.815 269.159 230.711 278.848C226.946 282.211 223.77 285.052 222.35 286.35C220.769 287.802 216.573 292.252 216.192 292.595C214.173 294.48 206.139 300.882 204.393 302.339C203.369 303.231 204.731 302.866 203.771 303.604C202.876 304.286 203.443 303.127 203.167 303.318C201.96 304.12 197.55 307.976 191.143 312.163C185.008 316.394 175.234 320.339 171.079 320.887C173.559 320.453 180.602 317.848 185.308 314.881C190.13 311.971 193.293 309.22 193.076 309.158C193.003 309.167 189.131 311.187 188.361 311.851C186.867 312.233 182.504 316.289 179.003 317.341C178.579 317.422 179.909 316.254 173.758 318.162C172.063 318.653 167.963 320.217 163.182 320.486C162.561 320.499 161.838 320.486 161.144 320.416C159.095 320.985 152.774 321.237 145.978 321.362C146.439 323.299 146.825 323.556 146.866 323.796C147.023 324.708 146.9 326.312 147.227 328.181C148.845 337.598 152.181 351.843 152.699 359.525C151.707 352.803 149.924 346.593 148.51 340.039C149.994 341.755 145.818 330.474 148.39 337.044C147.906 335.584 146.58 328.547 145.342 321.374C145.205 321.377 145.068 321.38 144.931 321.382C145.632 325.074 146.281 328.152 145.216 328.666C148.822 350.058 153.394 371.41 158.801 392.48C159.658 396.275 158.017 394.512 160.015 400.598C159.919 398.909 159.831 397.223 159.746 395.535C160.315 398.768 163.806 412.877 164.73 415.051C164.847 415.333 165.93 415.454 167.06 418.891C168.067 421.939 167.498 422.651 167.869 424.336C168.184 425.75 168.861 427.234 168.951 427.655C169.018 427.977 168.616 428.242 168.779 429.019C169.301 431.47 169.924 429.147 169.258 431.96C169.018 431.405 168.78 430.849 168.541 430.292C169.251 433.22 169.897 437.355 168.195 433.231C167.904 432.523 168.533 433.007 168.357 432.467C161.574 411.199 166.019 428.502 169.143 435.708C169.117 437.837 173.146 448.343 173.167 448.729C173.161 449.281 172.021 447.645 172.428 450.173C172.472 450.721 178.032 464.682 175.327 459.923C174.761 458.959 172.459 452.087 171.869 450.465C171.896 454.818 177.136 463.098 177.49 464.117C178.837 468.262 173.37 456.731 176.715 465.959C179.321 473.006 177.639 466.097 179.061 468.637C179.844 470.069 182.082 478.339 183.241 477.596C184.49 480.23 183.183 478.931 183.273 479.281C183.364 479.635 185.965 484.744 186.447 486.529C186.504 486.747 185.584 486.382 185.624 486.616C185.711 487.079 188.08 492.069 188.229 492.236C188.324 492.346 188.343 490.904 188.699 491.333C189.104 491.838 191.173 496.681 191.465 496.875C191.865 497.133 188.992 491.298 190.069 492C191.128 494.769 193.647 499.052 194.987 500.549C194.636 500.19 193.373 497.597 192.996 496.656C194.098 496.68 196.753 502.233 195.128 500.68C196.093 501.698 195.897 500.778 196.587 501.281C196.767 501.42 197.63 503.133 197.949 503.384C197.998 503.407 197.467 501.474 197.823 501.739C198.463 502.239 200.965 507.407 201.097 507.849C201.451 509.143 199.043 505.15 198.493 504.975C198.407 504.959 199.47 508.882 199.437 508.966C198.845 509.539 197.338 505.321 196.939 506.086C197.301 507.141 197.666 508.191 198.034 509.234C195.447 505.805 192.322 498.466 190.731 496.938C193.637 502.619 196.629 508.567 194.992 509.373C194.303 509.722 192.662 507.466 192.535 507.645C192.089 508.331 194.494 511.391 194.528 511.526C194.542 511.648 194.529 511.713 194.493 511.732C194.125 511.933 191.4 507.198 191.114 507.02C190.609 506.754 190.476 509.555 190.206 509.69C190.112 509.648 188.07 506.255 188.187 507.683C188.304 509.136 189.842 512.21 189.85 512.341C189.859 513.083 186.892 507.821 186.647 507.724C186.517 507.683 187.442 510.866 187.336 511.023C187.219 511.169 185.785 509.121 184.873 508.468C184.194 507.983 184.865 510.036 184.644 509.726C184.472 509.495 181.975 504.326 181.799 504.094C181.525 503.758 181.677 505.176 181.487 505.052C181.212 504.875 180.568 503.117 180.514 503.41C180.462 503.646 182.127 510.843 181.742 511.014C181.025 511.263 179.193 503.576 179.701 511.324C179.707 511.381 180.669 512.858 180.678 512.913C180.68 514.124 177.419 509.454 180.628 515.548C174.079 504.445 178.909 514.624 176.944 513.475C176.171 513.017 173.824 508.618 173.754 508.625C173.411 509.327 174.526 510.553 174.492 511.166C174.467 511.511 171.957 507.763 172.012 508.848C172.037 509.419 174.169 513.649 174.235 513.863C174.718 515.743 173.304 513.842 173.235 514.34C173.186 514.676 174.459 517.273 174.466 517.358C174.456 517.504 172.019 514.316 171.417 513.682C170.955 513.208 171.7 515.468 171.427 515.115C169.77 512.978 168.635 507.387 169.207 513.047C169.24 513.389 170.172 515.196 170.184 515.271C170.249 516.649 168.551 513.282 167.867 512.878C166.672 512.177 169.398 516.836 166.965 513.04C167.957 516.261 168.841 518.024 170.744 521.474C165.472 511.806 162.036 509.144 167.457 520.141C165.747 516.63 164.93 517.492 164.402 516.458C164.072 515.825 162.662 510.245 161.503 513.661C161.358 514.094 163.204 517.014 162.16 516.324C158.755 508.806 161.704 516.335 161.643 516.389C160.176 516.987 152.851 498.012 151.479 494.897C149.724 491.247 147.323 488.42 146.991 487.601C145.916 484.935 147.357 486.927 147.319 486.249C147.259 485.561 143.232 478.403 143.156 477.991C142.824 476.428 144.052 477.672 144.028 477.507C143.702 475.525 139.403 465.501 138.559 462.559C138.153 462.792 140.202 468.59 138.213 465.225C135.909 461.313 137.728 460.403 137.771 460.265C131.001 441.017 125.116 421.584 119.934 401.958C118.943 402.486 123.202 415.086 123.174 415.408C122.813 417.251 117.556 397.878 116.819 393.481C117.078 395.372 117.346 397.268 117.617 399.151C115.525 395.994 115.156 387.953 113.442 383.034C112.885 381.45 113.165 384.68 113.119 384.624C112.217 382.905 111.888 379.892 113.026 381.935C111.385 377.62 112.199 378.124 111.465 374.675C111.428 374.498 111.276 376.081 110.463 373.408C110.076 372.157 108.592 365.373 107.98 364.539C107.719 364.198 106.587 368.071 108.297 368.151C109.132 375.701 109.549 370.345 110.149 373.219C110.244 373.657 109.095 372.862 111.186 379.982C109.239 379.008 108.561 370.359 108.069 368.996C107.007 366.131 108.864 378.482 110.668 380.397C109.164 379.656 110.694 381.294 111.284 384.004C111.933 386.973 111.25 385.776 111.634 387.377C112.688 391.741 113.134 389.71 113.226 393.503C114.828 389.382 115.093 399.569 115.198 402.541C113.878 398.017 112.589 393.45 111.347 388.908C111.28 389.202 111.214 389.496 111.148 389.789C110.871 388.581 110.596 387.363 110.323 386.146C110.494 386.31 110.666 386.474 110.838 386.638C108.524 380.58 109.111 378.853 109 378.343C107.587 371.736 105.933 364.148 104.583 357.479C104.387 356.479 103.673 357.307 102.895 349.898C102.65 347.516 103.712 349.605 103.11 346.965C100.744 343.97 102.149 343.777 101.969 342.793C101.454 339.99 100.714 338.306 100.662 338.046C99.9685 334.538 99.1739 329.404 98.4935 325.53C98.4746 325.466 98.2597 327.55 98.0189 325.02C97.9767 324.581 98.2151 322.312 98.2591 319.295C98.095 319.281 97.9294 319.266 97.762 319.249C97.773 319.382 97.7855 319.516 97.7962 319.653C97.8138 319.897 97.8068 323.391 97.4818 322.615C97.2484 321.355 97.0533 320.197 96.8929 319.145C95.2843 318.917 93.5229 318.458 91.5648 317.358C90.4402 316.712 92.5275 316.661 92.3919 316.57C91.0677 315.744 88.8768 316.815 86.931 315.254C86.7756 315.123 91.9818 315.632 83.1419 313.626C83.7312 313.874 84.3203 314.12 84.9066 314.363C83.5568 314.341 74.7036 312.261 73.5072 311.833C70.1136 310.72 73.3238 310.831 69.8402 309.931C71.7611 311.609 61.205 308.572 62.1234 307.873C60.3268 308.519 51.8134 304.717 47.8021 303.139C46.1483 302.51 43.3842 301.659 41.3548 300.985C40.3065 300.643 39.5071 300.377 39.2484 300.251C38.3661 299.822 38.9335 299.218 37.3343 298.393C36.8945 298.164 31.744 296.708 27.7503 294.234C26.9595 293.749 25.6997 291.828 27.3743 292.153C30.2337 292.706 34.8854 295.711 35.099 294.964C35.3473 294.174 28.3892 291.903 26.599 291.061C18.3731 287.191 23.5605 288.342 23.4466 288.009C23.1316 287.184 18.5342 285.337 18.3636 285.204C17.6655 284.641 21.1181 285.493 21.3079 285.144C21.563 284.693 17.508 282.041 18.5706 282.286C20.0785 282.636 23.8783 285.014 24.1341 285.077C27.695 285.983 23.5403 283.018 22.4788 281.956C22.1614 281.634 23.8051 281.984 23.5081 281.806C18.9573 279.093 21.8427 282.931 18.6898 281.469C15.8474 280.152 19.8836 280.955 19.7699 280.862C19.6567 280.765 16.2067 279.312 15.7845 278.841C15.5751 278.609 25.0751 280.839 24.9788 280.063C22.0625 279.04 19.1501 278.016 16.2454 276.991C16.3412 276.073 20.2064 278.355 20.6702 278.445C21.5919 278.622 19.3775 277.235 19.5833 277.016C19.7045 276.873 22.7573 277.429 20.3158 276.151C19.4855 275.714 17.4299 275.548 14.5062 273.665C25.8064 277.404 18.3924 273.838 18.1741 273.409C17.9607 272.983 23.5303 274.457 17.0804 271.965C17.449 270.251 17.4499 271.527 19.349 271.975C21.7195 272.538 16.7939 269.918 24.7513 273.625C24.5634 272.678 18.0738 270.093 17.7279 269.88C17.4506 269.704 19.0573 269.93 18.5882 269.593C13.0746 265.651 17.0191 268.035 15.6087 266.38C15.4893 266.235 9.86188 263.53 14.307 265.194C22.3958 268.221 25.315 270.641 27.5794 268.918C22.0657 265.53 14.3163 264.062 12.4945 263.345C9.72619 262.253 12.7802 262.963 12.4837 262.691C12.3981 262.607 9.99711 261.668 9.97688 261.617C9.00301 259.199 20.5447 265.915 24.5286 267.184C23.5855 266.497 22.6735 265.823 21.7396 265.14C23.1543 265.705 24.5641 266.268 25.9583 266.823C19.5154 263.59 25.7962 266.529 28.0482 265.811C28.5432 265.646 23.9328 264.399 29.2943 265.561C25.6864 263.858 26.9777 264.049 23.4798 263.083C23.7936 262.558 31.5728 264.989 34.6497 265.897C24.4406 261.018 29.5576 265.499 20.9613 260.72C19.0122 260.734 23.3752 262.36 22.972 262.328C21.5477 262.228 18.8298 260.354 14.6839 260.342C14.0031 260.34 16.1747 262.082 12.5306 260.548C12.1172 260.373 10.0722 258.807 10.1097 258.77C10.6204 258.408 12.8353 259.528 13.0238 259.367C13.182 259.207 10.5663 258.271 10.595 258.221C10.752 257.571 12.831 258.863 12.5814 258.537C12.0736 257.842 3.33775 252.73 15.2552 258.058C4.94702 254.645 13.7089 258.214 17.6995 259.538C18.7283 259.882 19.1114 259.611 20.5941 260.07C22.4599 260.641 24.5599 261.703 25.5023 262.009C26.5474 262.348 21.1418 259.138 29.3685 262.789C25.4658 260.201 17.6301 258.064 13.7044 255.75C5.78261 251.083 20.1814 256.674 21.7034 257.157C22.1162 257.289 20.9802 256.248 21.2591 256.326C21.7143 256.46 29.6912 259.982 30.6663 259.9C31.6259 259.814 27.7162 258.721 27.6175 258.184C27.5684 257.832 37.521 261.282 32.3216 258.942C28.7496 257.335 21.5731 255.747 20.9515 254.046C26.3456 256.135 31.7299 258.21 37.1107 260.269C34.375 258.612 31.6425 256.951 28.9085 255.287C34.962 257.58 39.9538 260.221 45.9163 261.835C32.8311 254.8 50.8471 262.422 51.1263 262.311C51.2585 262.237 46.3218 258.827 45.5658 258.26C48.2504 259.047 53.6935 261.017 56.9583 261.91C59.5656 262.601 60.6665 262.555 57.5111 260.529C57.43 260.478 57.3462 260.425 57.2601 260.371C57.3366 260.423 57.4208 260.474 57.512 260.525C59.0239 261.377 62.4415 261.808 62.4154 261.725C62.314 261.258 59.8747 260.292 57.9417 259.449C56.292 258.737 55.0675 258.172 55.7562 258.136C56.5432 258.096 57.3279 258.419 58.1722 258.872C59.1874 259.429 60.269 260.184 61.5306 260.618C73.0893 264.429 71.2012 259.814 82.3929 263.891C82.2017 263.695 82.0044 263.496 81.8216 263.302C85.0462 264.316 88.2821 265.256 91.5247 266.119C91.1563 258.966 91.3514 250.49 91.2718 243.428C91.2963 243.276 91.3205 243.146 91.3431 243.034C91.5089 242.259 91.6197 242.479 91.7093 243.048C91.9059 244.412 92.0351 247.745 92.3773 244.819C92.4576 244.154 92.5257 243.578 92.5814 243.079C93.2728 237.174 91.7804 242.402 91.7308 242.167C91.3134 240.048 94.2206 233.1 92.221 233.025C92.6456 230.057 92.8594 230.952 92.7816 226.722C92.6185 227.269 92.4551 227.819 92.2923 228.373C91.3286 223.558 94.7618 213.645 94.9525 214.387C95.4362 216.506 94.2522 221.668 94.2552 222.113C94.2603 222.76 96.1927 224.692 94.0726 231.873C95.3042 234.891 95.4927 220.411 96.1312 227.042C96.1397 222.634 98.0687 204.33 97.6849 201.632C97.6285 201.315 96.1709 202.684 97.1673 198.194C97.645 196.039 97.3037 201.267 97.681 200.292C98.5108 197.526 101.884 155.301 104.777 146.487C104.9 145.944 105.265 146.236 105.385 145.702C105.698 144.256 106.436 139.264 107.334 136.26C107.437 135.909 107.542 135.585 107.646 135.298C107.474 135.691 107.331 135.998 107.214 136.226C106.785 137.09 106.701 136.897 106.824 136.115C107.098 134.257 108.627 128.959 109.227 127.158C110.589 123.051 111.226 123.538 111.924 121.787C114.583 115.101 116.442 103.875 119.928 99.0715C118.267 98.8105 124.008 90.1217 125.779 85.8147C127.123 82.4444 128.21 77.095 125.686 81.4348C128.173 75.5849 130.657 69.2938 133.365 63.7034C133.809 62.7873 133.601 64.2632 134.36 62.677C134.427 62.5317 134.1 62.1199 134.756 60.759C140.462 49.4426 138.456 55.3495 139.866 53.427C140.688 52.3699 141.302 51.5334 141.71 50.9329C137.723 57.4241 134.236 64.9059 133.296 66.884C134.914 65.6825 140.477 52.592 143.369 49.0305C143.46 48.9118 143.657 49.6641 143.743 49.5383C143.745 49.5358 143.747 49.5331 143.748 49.5305C143.801 49.4538 143.87 49.3527 143.951 49.2307C145.021 47.5647 149.605 40.4078 148.033 41.5823C147.608 41.8906 145.429 45.0523 143.117 48.6838C142.849 49.1005 142.578 49.5289 142.305 49.967C143.033 48.5957 141.866 49.2164 141.991 48.9719C142.11 48.7409 142.251 48.4891 142.41 48.2209C143.958 45.5276 148.086 40.3468 149.756 38.2444C150.155 37.7296 149.796 37.521 149.859 37.4338C151.516 35.3731 151.775 36.9742 152.531 34.0354C156.65 31.1154 147.226 41.3529 148.76 41.0793C149.267 41.0296 152.931 35.5821 158.265 29.6555C163.468 23.6577 170.85 18.2507 172.093 16.9934C172.213 16.8504 172.26 16.7502 172.222 16.6985C172.381 16.7473 172.833 16.6496 173.695 16.343C175.577 15.5688 183.194 11.5561 184.502 10.8333C184.715 10.6925 184.165 9.70394 184.45 9.56665C185.143 9.11813 195.304 6.08486 199.088 4.49731C196.936 4.93633 194.812 5.44049 192.713 6.00415C205.25 2.00098 203.463 2.60618 198.977 3.32934C198.761 3.38614 198.541 3.40357 198.335 3.45727C194.936 4.14277 190.742 5.40343 190.652 5.34985C190.474 5.23217 195.629 3.18031 200.674 1.9563C205.697 0.685749 210.565 0.22156 208.379 1.09497C207.696 1.21422 197.229 3.24858 202.525 2.73266C203.406 2.58512 210.185 1.08019 210.615 1.16723C212.97 1.15109 198.489 4.86244 200.569 5.34106C203.77 3.7116 208.374 3.1255 212.584 2.42212C214.507 2.10238 214.951 1.51342 215.195 1.47681C218.87 1.04079 216.845 1.79767 218.079 1.70337C218.651 1.55217 226.378 0.413643 224.86 2.14868C237.813 2.51239 240.496 4.31633 236.677 2.79614C232.959 1.52982 223.835 0.355772 216.509 1.08716ZM155.049 506.267C155.274 504.66 157.586 510.98 155.958 508.849C155.888 508.748 155.058 506.372 155.049 506.267ZM150.333 494.98C150.963 494.673 153.595 501.903 154.549 503.599C153.22 501.945 151.395 497.742 150.333 494.98ZM183.451 483.433C183.316 483.217 182.895 484.823 182.013 483.572C183.634 486.043 188.744 498.243 189.187 498.81C189.495 499.246 188.753 495.191 190.881 501.105C190.882 501.107 190.883 501.11 190.884 501.113C190.4 496.293 186.117 491.439 185.877 490.784C185.639 490.147 186.732 490.824 186.689 490.676C186.568 490.34 183.624 483.745 183.451 483.433ZM184.374 491.797C185.314 493.919 186.521 497.271 187.595 498.182C186.604 496.056 185.426 492.723 184.374 491.797ZM176.709 475.556C178.273 481.091 179.585 480.091 180.157 481.636C180.961 483.788 179.698 484.126 179.142 483.861C180.594 485.282 183.797 492.627 185.86 496.697C184.478 492.925 182.346 486.649 180.999 482.9C180.611 481.824 179.852 480.936 179.513 480.016C178.976 478.55 179.978 479.629 179.956 479.526C179.955 479.523 179.954 479.52 179.952 479.518C179.435 477.539 177.39 475.542 178.928 479.606C178.185 478.265 177.445 476.915 176.709 475.556ZM186.085 481.497C186.737 482.208 190.967 491.45 191.069 491.832C191.678 494.917 186.234 482.291 186.085 481.497ZM191.683 491.746C191.427 491.424 187.101 482.3 188.606 483.748C189.588 484.728 193.162 493.95 191.683 491.746ZM178.701 483.846C178.334 480.959 176.295 482.881 176.333 483.249C176.507 484.761 179.402 488.89 180.045 489.704C176.751 483.095 178.882 485.197 178.701 483.846ZM183.295 485.143C182.542 482.509 185.316 488.879 185.385 489.129C185.728 490.963 183.623 486.323 183.295 485.143ZM187.716 488.026C186.599 484.946 183.087 478.604 185.363 480.876C186.508 482.017 186.219 483.195 186.285 483.373C186.918 485.099 188.593 488.559 187.716 488.026ZM176.898 486.228C177.071 483.858 174.176 483.013 175.883 485.841C175.965 485.976 176.884 486.332 176.898 486.228ZM138.625 477.684C137.6 473.644 141.954 483.637 141.943 483.814C141.871 484.017 139.162 479.822 138.625 477.684ZM186.702 481.438C186.772 480.814 188.127 481.672 188.17 482.942C188.188 483.486 187.309 482.835 186.702 481.438ZM178.332 472.047C178.679 474.601 181.249 479.044 180.956 477.745C180.82 477.182 178.935 472.295 178.332 472.047ZM172.344 472.453C171.124 470.128 173.084 476.549 174.25 477.445C173.729 476.261 172.691 473.119 172.344 472.453ZM140.466 468.711C141.048 470.306 141.88 472.538 141.604 473.111C141.27 472.026 140.136 468.796 140.466 468.711ZM176.058 472.197C175.967 471.897 173.425 465.965 173.287 466.455C173.397 467.347 177.004 475.818 176.058 472.197ZM131.226 455.498C130.692 451.918 135.695 467.449 135.796 467.935C135.822 468.19 135.823 468.364 135.808 468.468C136.213 468.964 137.313 471.85 136.931 472.372C136.65 471.489 135.735 469.126 135.692 468.828C135.672 468.7 135.663 468.603 135.663 468.533C134.816 467.656 131.301 456.197 131.226 455.498ZM170.28 451.326C166.846 448.653 173.707 460.865 172.492 463.087C167.463 448.954 174.164 473.068 173.224 462.211C175.295 470.665 174.568 464.725 175.391 465.837C176.268 467.026 177.632 471.68 178.218 471.197C178.217 471.194 178.216 471.191 178.215 471.189C177.074 468.447 175.961 465.713 174.857 462.937C174.441 466.218 172.711 460.347 173.197 457.981C172.608 457.295 172.02 456.607 171.433 455.915C172.773 453.943 169.692 454.449 170.28 451.326ZM176.788 459.785C176.567 459.27 171.979 448.131 173.234 449.532C174.057 450.542 179.37 466.11 180.38 468.508C178.676 466.655 178.632 464.634 177.463 461.676C177.148 460.878 176.875 461.224 176.841 461.139C176.303 459.756 177.102 460.641 176.788 459.785ZM134.678 454.597C136.304 458.827 135.432 454.687 136.746 459.016C135.831 458.187 135.527 457.539 134.678 454.597ZM165.323 451.477C165.897 452.893 166.922 456.944 167.528 457.357C167.131 456.001 165.941 452 165.323 451.477ZM130.855 453.711C131.204 456.55 128.277 447.33 129.728 450.162C129.801 450.32 130.832 453.566 130.855 453.711ZM167.613 453.943C167.408 451.699 165.691 451.751 166.996 453.962C167.047 454.048 167.61 454.029 167.613 453.943ZM173.496 447.842C175.064 449.153 177.173 457.068 174.779 451.988C174.551 451.497 174.229 449.228 173.496 447.842ZM168.884 449.654C168.444 446.608 167.14 448.576 168.345 450.527C168.415 450.639 168.905 449.794 168.884 449.654ZM165.883 429.386C166.22 431.653 171.397 447.161 171.833 447.797C171.948 447.986 172.471 447.963 172.456 447.86C172.263 447.077 166.719 431.551 165.883 429.386ZM164.136 442.125C164.296 440.559 162.273 439.503 162.972 441.727C163.183 442.386 164.113 442.293 164.136 442.125ZM171.201 433.581C171.772 433.127 173.515 439.51 174.193 441.082C173.211 439.862 172.034 435.844 171.201 433.581ZM129.292 438.613C128.924 437.056 130.42 438.55 130.444 440.383C130.449 440.96 129.501 439.484 129.292 438.613ZM124.339 432.265C124.341 431.942 122.882 429.104 123.678 429.6C123.677 429.596 123.676 429.592 123.675 429.588C125.796 433.183 124.396 434.36 124.24 434.044C122.289 430.02 124.319 432.407 124.339 432.265ZM120.124 417.024C120.707 417.291 124.093 427.757 123.486 427.807C122.339 424.219 121.219 420.623 120.124 417.024ZM159.17 426.706C158.626 422.451 157.89 425.472 158.874 427.674C158.926 427.765 159.184 426.812 159.17 426.706ZM163.948 416.707C163.861 420.483 169.176 430.119 166.714 423.491C166.665 423.359 166.448 424.857 165.721 422.222C165.663 422.001 166.229 421.384 164.98 418.173C164.726 417.522 163.954 416.624 163.948 416.707ZM163.6 420.658C161.753 415.358 164.276 425.853 164.48 424.31C164.488 424.211 163.79 421.207 163.6 420.658ZM159.644 417.488C160.092 418.788 160.84 422.505 161.301 422.589C160.839 421.296 160.101 417.577 159.644 417.488ZM162.858 415.008C162.961 415.862 165.323 424.036 164.738 420.938C164.682 420.667 163.205 415.017 162.858 415.008ZM118.705 411.615C118.43 409.258 119.999 414.523 120.29 416.126C119.964 416.236 118.742 411.958 118.705 411.615ZM117.745 401.551C118.615 405.033 119.508 404.012 119.606 406.346C119.62 406.727 117.67 408.498 117.498 404.45C117.47 403.723 118.713 406.266 117.745 401.551ZM115.602 402.549C116.197 402.71 116.765 403.34 117.323 406.203C116.83 405.404 116.131 403.666 115.602 402.549ZM158.28 395.405C158.028 395.831 159.684 402.757 159.836 403.073C161.273 406.194 158.541 395.905 158.28 395.405ZM117.421 400.003C117.554 400.589 117.654 401.104 117.745 401.551C117.636 401.112 117.526 400.601 117.421 400.003ZM118.846 398.323C118.837 398.184 117.998 394.036 117.68 394.712C117.209 395.708 118.892 399.542 118.846 398.323ZM159.493 391.241C159.394 389.384 161.165 394.671 161.174 396.371C160.767 397.312 159.504 391.481 159.493 391.241ZM113.827 387.318C114.452 389.793 114.902 392.181 115.289 394.513C114.794 394.12 113.61 387.645 113.827 387.318ZM115.432 385.527C115.185 384.303 107.459 347.801 111.815 372.469C111.956 373.242 112.176 372.092 112.801 375.226C112.842 375.433 112.49 375.621 112.618 376.262C112.904 377.741 114.494 385.545 115.188 387.044C115.122 387.074 115.08 387.191 115.072 387.419C114.989 389.457 118.075 394.963 117.973 393.828C117.836 392.368 116.172 388.034 115.429 387.185C115.484 386.98 115.493 386.456 115.43 385.519C115.431 385.521 115.431 385.524 115.432 385.527ZM148.758 384.68C147.561 381.895 149.68 390.864 149.577 388.139C149.569 388.003 148.814 384.816 148.758 384.68ZM115.188 387.044C115.25 387.016 115.328 387.071 115.429 387.185C115.381 387.366 115.305 387.299 115.188 387.044ZM106.609 358.989C106.266 358.697 107.069 363.408 107.584 363.536C107.334 362.492 106.868 359.212 106.609 358.989ZM107.806 357.357C107.303 357.084 108.397 361.77 108.473 361.872C108.988 362.599 108.237 358.54 107.806 357.357ZM102.519 331.1C102.311 328.956 101.701 329.499 101.702 329.638C101.75 331.296 102.755 333.507 102.519 331.1ZM144.613 322.922C144.711 323.38 144.799 323.727 144.875 323.943C144.839 323.596 144.804 323.249 144.768 322.902C144.72 322.909 144.668 322.916 144.613 322.922ZM151.653 323.053C148.357 322.915 150.838 321.376 153.483 321.756C153.786 321.797 156.05 323.202 151.653 323.053ZM144.318 321.39C144.406 321.89 144.492 322.334 144.57 322.712C144.631 322.714 144.691 322.715 144.749 322.717C144.703 322.273 144.658 321.83 144.613 321.386C144.514 321.388 144.416 321.388 144.318 321.39ZM99.7074 319.402C99.8216 320.002 99.9486 320.619 100.091 321.254C100.123 321.135 100.09 320.397 100.031 319.424C99.9236 319.416 99.8158 319.409 99.7074 319.402ZM85.5931 316.664C85.6217 316.327 90.4333 317.33 90.68 317.42C92.2579 318.076 87.2767 317.495 85.5931 316.664ZM75.5755 316.338C73.9614 316.698 68.1299 314.483 70.763 314.959C71.4693 315.089 74.3291 316.047 75.5755 316.338ZM144.025 315.351C144.045 315.612 144.07 315.875 144.098 316.139C144.073 315.876 144.049 315.613 144.025 315.351ZM67.6663 312.783C72.2922 313.94 76.8791 314.964 81.5706 315.885C79.8892 316.154 76.1538 314.714 73.8519 314.272C70.6838 313.695 64.687 314.503 67.6663 312.783ZM79.3402 312.442C77.2826 311.895 73.2656 310.596 74.3675 311.476C74.5091 311.575 79.2273 312.749 79.3402 312.442ZM74.0013 310.339C74.6326 311.169 78.3806 311.658 80.5345 312.341C79.6965 311.421 76.2023 310.985 74.0013 310.339ZM188.361 311.851C188.626 311.785 188.832 311.804 188.955 311.967C188.248 312.134 188.135 312.06 188.361 311.851ZM71.7913 308.66C72.2465 309.31 76.55 310.348 78.2542 310.707C77.6753 309.92 73.8179 309.398 71.7913 308.66ZM69.1732 309.108C68.9107 308.992 62.7406 307.201 63.3265 307.644C64.4946 308.544 70.0126 309.561 69.1732 309.108ZM199.359 304.727C202.262 301.719 195.614 306.837 195.8 307.185C195.954 307.298 199.28 304.835 199.359 304.727ZM58.2679 305.085C56.8381 303.906 48.9976 301.623 50.7386 302.735C50.9686 302.899 57.2193 304.725 58.2679 305.085ZM40.3665 295.347C39.4657 295.166 41.7457 296.653 42.9408 297.012C43.1833 297.086 43.3788 297.115 43.4925 297.076C43.6244 297.031 43.436 296.861 43.0892 296.641C42.3399 296.156 40.8415 295.442 40.3665 295.347ZM222.409 285.559C222.305 285.204 214.397 292.253 214.11 293.08C215.294 291.81 222.544 285.858 222.409 285.559ZM27.9202 275.075C29.5048 274.595 27.0139 273.977 26.3079 273.467C25.6798 273.01 25.4647 272.258 23.8001 271.929C25.182 272.982 26.5601 274.033 27.9202 275.075ZM222.697 44.5842C222.529 44.4016 222.165 44.2901 219.858 44.6047C219.503 45.0713 220.338 44.9702 221.096 44.8958C221.858 44.8176 222.539 44.7631 222.187 45.0999C221.82 45.4649 219.271 45.6759 219.2 45.9221C219.2 46.1608 221.479 45.738 221.118 46.1604C220.742 46.7694 210.976 47.5547 218.208 45.9485C216.251 46.2079 214.784 44.755 212.955 45.7219C211.818 46.421 219.237 46.7571 208.799 49.26C208.332 48.527 212.921 47.7692 212.989 47.7375C213.13 47.6087 211.893 46.0485 211.722 46.0022C211.156 45.582 200.334 50.5657 197.842 51.1799C198.519 51.4149 196.589 52.4495 194.597 53.6301C193.168 54.4358 191.571 55.5898 191.37 55.9905C191.275 56.189 192.269 56.1794 192.15 56.3733C191.456 57.4024 187.748 59.6269 186.181 61.6799C184.482 63.8426 185.122 63.9665 185.032 64.0764C184.249 65.1071 184.55 64.0452 184.083 64.6995C183.587 65.363 180.757 69.4605 178.99 72.2004C178.488 72.9709 178.124 73.5745 178.086 73.6741C178.045 73.7869 179.271 73.0215 178.454 74.5569C178.322 74.857 177.744 74.1529 175.347 79.093C172.51 85.1496 178.383 75.519 177.743 78.3391C174.715 81.4475 175.767 81.945 175.153 82.9143C174.938 83.2566 172.7 85.5368 171.302 88.6848C172.204 86.3907 173.132 84.1484 174.095 81.9641C172.86 83.9428 171.02 88.2385 170.023 90.0071C169.535 90.8628 169.155 89.8083 168.3 91.7756C168.127 92.21 169.101 94.5839 170.637 89.1604C171.435 89.0385 169.928 91.2633 169.607 92.4729C169.56 92.6563 170.286 93.7902 169.018 94.9631C168.729 95.2707 167.266 90.0333 165.327 101.05C165.268 101.405 166.104 100.424 166.056 100.775C166.022 101.005 164.835 103.555 164.781 103.865C164.724 104.182 165.635 103.088 165.58 103.471C165.305 105.428 162.722 107.188 164.294 103.488C163.602 104.658 162.919 105.826 162.236 107.019C164.002 106.141 161.843 109.128 161.245 110.908C157.458 122.355 160.988 115.036 160.723 117.138C160.321 120.541 158.967 117.359 158.035 122.307C157.961 122.774 160.744 117.329 156.574 128.369C157.065 126.705 157.571 125.028 158.079 123.368C156.523 123.91 156.221 129.372 156.119 129.776C154.902 134.261 155.373 131.113 153.997 137.935C153.875 138.548 153.182 139.746 152.959 141.065C152.029 146.528 155.407 134.234 156.038 134.073C156.303 133.976 152.343 147.072 152.124 147.512C151.046 149.286 153.621 141.465 152.54 142.784C152.405 142.95 151.705 145.351 150.818 148.594C149.259 154.071 147.787 161.992 147.243 164.293C146.232 168.29 144.238 169.98 146.189 170.276C144.092 171.178 145.259 172.43 145.173 172.965C144.139 179.56 144.138 179.619 143.735 185.456C143.652 186.73 142.961 187.824 143.02 188.276C143.056 188.547 143.729 188.103 143.807 189.427C143.884 191.254 142.407 202.335 142.023 203.162C141.615 203.981 142.196 198.415 141.556 199.379C141.21 203.42 141.109 207.277 140.813 211.373C140.689 213.067 140.338 212.174 140.288 212.912C140.26 213.266 140.303 219.115 140.465 218.906C140.806 218.265 141.659 200.219 142.076 205.013C142.15 205.964 141.032 209.099 142.186 208.667C141.281 220.598 140.575 232.619 139.944 244.794C139.743 248.488 139.658 252.412 139.669 256.414C139.227 252.58 139.174 248.585 139.351 244.773C139.608 239.041 140.059 233.269 140.262 227.745C140.312 226.36 140.634 221.876 140.041 222.377C139.586 229.244 139.424 237.546 139.025 244.761C138.947 246.087 138.87 247.42 138.785 248.726C138.77 248.963 138.272 248.084 138.178 248.973C137.986 250.617 138.855 256.051 138.676 256.953C138.625 257.126 137.902 254.009 137.49 254.967C136.43 257.454 138.879 257.95 138.915 260.069C138.904 261.175 138.645 266.446 138.774 270.669C139.082 270.66 139.386 270.65 139.684 270.641C139.653 269.07 139.676 267.839 139.937 268.123C140.058 268.953 140.163 269.787 140.26 270.623C141.405 270.587 142.456 270.551 143.37 270.512C144.603 270.518 150.999 270.687 151.508 270.725C152.416 270.86 147.482 271.325 149.755 271.531C150.061 271.569 154.635 271.299 157.992 270.842C158.336 270.755 158.512 270.591 158.419 270.377C158.318 270.364 158.159 270.438 157.956 270.506C156.499 270.72 155.096 270.926 154.705 270.878C153.531 270.708 154.898 270.433 157.908 270.041C158.277 269.939 158.508 269.908 159.337 269.598C160.147 269.295 161.673 268.544 163.469 267.391C167.071 265.099 171.107 261.771 171.438 261.305C170.724 261.615 170.054 261.885 169.355 262.172C170.996 261.005 172.711 259.725 174.446 258.396C173.872 259.118 173.347 259.795 172.78 260.5C174.744 259.036 177.27 256.697 179.215 255.232C179.531 254.995 179.106 256.066 179.826 255.47C180.548 254.872 179.959 254.428 180.924 253.48C182.033 252.405 187.726 248.018 189.618 246.302C191.812 244.317 193.925 242.353 196.127 240.306C199.827 236.828 203.459 232.774 207.243 228.576C202.187 235.266 208.121 229.296 209.453 227.224C209.736 226.735 208.696 226.146 214.228 219.295C217.712 214.819 216.251 220.288 220.936 211.798C215.629 217.144 219.861 211.273 223.039 206.291C223.595 205.46 228.216 198.569 230.1 195.329C230.748 194.231 231.157 192.202 232.018 190.732C232.611 189.72 233.397 189.155 234.276 187.639C237.326 182.38 240.359 177.09 243.525 171.724C244.316 170.39 245.087 169.005 245.842 167.564C245.773 171.709 247.851 165.278 248.016 164.98C249.137 163.782 246.231 170.189 247.712 167.825C249.369 164.315 250.848 160.549 252.174 156.575C250.843 159.728 252.217 151.811 253.164 150.486C251.629 150.967 259.537 131.231 259.456 127.501C259.461 126.774 257.897 131.219 260.13 120.693C260.368 119.543 260.767 120.061 260.826 119.444C260.861 119.075 259.723 116.625 260.937 114.383C261.343 113.616 261.482 118.484 262.697 109.466C262.777 108.838 262.854 108.153 262.927 107.37C261.067 111.125 263.477 93.3423 263.12 90.4631C262.955 91.0855 262.781 91.7207 262.599 92.3372C263.01 89.2713 262.377 88.7925 262.347 88.1282C262.196 85.448 262.064 81.8153 261.389 79.5413C260.583 76.8888 259.684 77.1882 258.937 74.1663C259.009 74.9246 259.065 75.691 259.101 76.4485C258.816 75.5546 258.507 74.6753 258.172 73.8079C257.834 72.9173 257.449 72.0394 257.007 71.1594C259.977 74.2208 256.697 70.3262 256.438 70.0852C256.123 69.652 256.974 70.0406 256.447 69.304C256.383 69.2336 256.056 69.5969 255.235 68.469C253.425 66.1131 254.121 66.1144 253.284 65.095C253.191 65.0096 253.177 65.6024 251.52 63.9543C245.796 58.804 251.872 63.7136 252.036 63.9182C252.29 64.1647 252.171 60.8938 255.662 66.261C254.567 64.4763 254.988 63.7723 254.854 63.5686C254.765 63.3725 251.969 60.5898 251.743 60.469C250.096 59.3011 250.993 60.9176 250.64 60.7239C250.435 60.5646 247.054 56.7376 245.018 57.4192C243.902 54.7197 247.15 57.0536 250.258 59.5364C250.948 59.6793 247.736 56.5484 247.494 56.4192C242.666 52.8684 244.584 55.9005 243.068 55.8225C242.276 55.7958 240.707 53.7503 241.959 55.9299C237.331 53.1559 240.434 54.3333 240.202 54.0588C239.823 53.65 237.977 52.9672 237.782 52.8157C237.499 52.5848 238.786 52.8415 237.614 52.0325C237.406 51.8942 235.086 51.4209 237.504 53.1067C234.103 51.1544 234.1 51.8826 233.404 50.2239C229.988 51.0947 232.137 48.1961 231.163 47.6301C228.583 46.192 228.72 48.1672 228.546 48.1819C228.118 48.2261 226.916 47.8018 225.475 47.2932C225.186 47.1262 223.466 46.6684 222.71 46.8235C222.951 46.2006 223.866 46.2565 224.488 46.4924C225.139 46.7279 225.415 47.0875 225.544 47.0012C225.558 46.9932 225.572 46.9858 225.584 46.9778C226.874 47.1375 226.563 46.8588 225.781 46.4133C225.678 46.04 224.327 45.4717 225.309 44.6497C224.704 44.9662 224.033 45.3087 223.313 45.6897C222.703 45.1364 222.834 44.7841 222.697 44.5842ZM138.37 268.542C138.02 267.296 137.826 269.542 137.914 270.696C138.045 270.692 138.175 270.688 138.304 270.684C138.339 270.032 138.393 268.637 138.37 268.542ZM13.3324 264.233C15.5045 264.767 19.9078 266.975 21.8519 267.546C22.0723 267.609 21.5138 265.652 23.9027 267.781C25.5287 269.225 14.9189 265.653 13.3324 264.233ZM240.635 268.035C242.326 266.798 244.39 263.731 243.288 264.583C243.053 264.78 240.346 267.921 240.635 268.035ZM95.6419 264.12C95.6826 263.639 94.9958 257.336 94.5716 259.955C94.2772 261.775 94.9985 262.05 95.015 262.478C95.0114 263.04 94.614 272.949 95.6419 264.12ZM92.4173 261.254C92.6034 262.595 92.6899 265.362 92.5628 266.392C92.7166 266.432 92.87 266.473 93.0238 266.513C92.9309 264.192 92.7407 261.542 92.4173 261.254ZM92.2581 263.165C91.8044 260.99 91.7628 263.226 91.8548 266.206C91.9752 266.238 92.0957 266.269 92.2161 266.301C92.1915 266.207 92.1633 266.098 92.1361 265.973C92.0563 265.595 92.3529 263.66 92.2581 263.165ZM47.7611 256.81C44.4281 256.055 35.8763 249.527 46.0413 254.152C46.0388 254.151 46.036 254.15 46.0335 254.149C48.6922 255.355 46.8425 255.106 46.9671 255.172C52.4658 258.114 51.3399 256.535 52.2884 256.783C54.292 257.3 53.5495 258.37 56.9837 259.177C51.3205 257.749 56.3283 259.402 56.3167 259.883C56.2365 261.837 49.4672 256.211 46.64 255.486C46.2422 255.383 48.7827 257.041 47.7611 256.81ZM18.7816 259.136C17.0415 258.088 21.2311 259.586 22.3558 260.239C22.3544 260.56 19.048 259.294 18.7816 259.136ZM52.6302 256.385C52.1237 255.419 56.5058 257.357 57.0872 257.722C57.321 257.871 53.2674 257.635 52.6302 256.385ZM39.4105 256.085C37.3819 254.89 42.4347 256.782 43.8109 257.516C43.7892 257.806 39.5944 256.192 39.4105 256.085ZM6.32356 253.718C6.2484 253.546 10.2878 254.986 10.7093 255.258C12.9216 256.675 6.72659 254.61 6.32356 253.718ZM91.7288 250.196C91.3386 249.732 91.4729 254.577 91.9671 255.2C92.0108 253.845 92.0301 250.553 91.7288 250.196ZM7.18587 252.684C7.22028 252.374 10.5351 253.635 10.8138 253.799C12.5329 254.837 8.39084 253.36 7.18587 252.684ZM180.226 253.448C180.916 252.032 186.374 248.204 185.67 249.169C185.498 249.405 180.02 254.091 180.226 253.448ZM0.052078 246.657C-0.242081 246.613 0.765677 246.53 1.67415 246.584C3.736 246.764 3.92012 246.75 4.54329 246.74C5.50623 246.691 6.27609 246.647 7.1927 247.119C12.5014 249.965 8.22757 249.187 19.8783 252.508C14.8331 251.466 19.3582 253.031 18.2972 253.01C17.4572 252.993 14.7967 251.632 16.1732 252.855C15.2364 252.113 12.4933 250.857 9.89192 249.745C8.58473 249.188 7.30862 248.664 6.24837 248.242C5.72897 248.036 5.21945 247.837 4.73958 247.659C4.43479 247.549 4.26565 247.484 3.81673 247.341C3.61018 247.276 3.44428 247.226 3.17805 247.155C2.79539 247.053 2.30853 246.95 1.91048 246.887C2.02824 246.905 2.13514 246.923 2.23274 246.941C1.49026 246.784 0.30678 246.694 0.052078 246.657ZM11.7542 248.711C12.1303 248.364 19.7299 251.828 21.0921 252.381C20.155 252.46 11.35 249.112 11.7542 248.711ZM140.323 245.128C140.724 245.31 140.27 248.652 140.328 249.97C139.91 249.742 140.334 246.286 140.323 245.128ZM258.18 245.119C255.725 246.649 254.325 252.416 256.712 248.769C256.951 248.411 258.303 245.049 258.18 245.119ZM46.8665 248.493C48.7108 249.842 41.8436 246.944 44.3919 247.45C44.4905 247.47 46.8085 248.447 46.8665 248.493ZM188.633 247.398C188.222 248.679 194.874 242.946 192.774 244.069C192.312 244.315 189.453 246.672 188.633 247.398ZM260.961 242.604C261.011 242.474 259.746 242.939 259.618 243.126C257.689 245.987 260.167 244.672 260.961 242.604ZM93.2835 242.681C93.3596 242.225 93.8258 231.44 93.0902 235.148C92.921 236.026 92.7156 241.605 92.9163 243.092C92.9715 243.517 93.059 243.59 93.1868 243.102C93.2169 242.992 93.2488 242.852 93.2835 242.681ZM265.573 234.903C265.532 233.438 262.979 238.693 262.164 239.519C262.163 239.521 262.161 239.524 262.159 239.527C261.916 239.77 263.376 234.302 260.161 241.522C262.693 238.21 260.385 241.951 260.552 241.99C261.055 242.117 264.588 236.071 265.573 234.903ZM268.355 225.296C268.422 225.231 268.787 225.676 268.747 225.776C267.729 228.316 266.643 226.973 268.355 225.296ZM266.19 219.863C265.897 219.893 266.267 218.026 266.031 218.276C265.366 219.002 260.142 227.738 261.486 226.76C261.982 226.413 264.625 221.152 264.793 220.948C265.062 220.636 264.67 222.583 266.19 219.863ZM143.047 218.9C143.566 220.144 143.085 223.818 142.974 226.102C142.522 225.044 142.937 220.811 143.047 218.9ZM213.079 222.416C213.567 221.472 210.61 224.529 211.024 224.835C211.163 224.94 213.018 222.548 213.079 222.416ZM267.757 220.353C267.951 219.476 266.275 221.28 265.851 222.241C265.737 222.499 267.506 221.486 267.757 220.353ZM277.543 214.031C278.193 213.302 276.871 216.499 277.103 216.242C277.585 215.699 277.928 215.246 278.169 214.863C276.753 217.555 275.164 220.319 274.903 220.524C273.683 221.475 276.112 217.915 276.128 217.822C276.162 217.612 273.11 218.987 277.543 214.031ZM276.301 215.288C275.664 216.239 273.532 219.968 273.272 219.969C272.885 219.943 275.376 215.164 276.301 215.288ZM270.605 215.456C271.301 213.665 268.192 216.875 267.803 218.993C267.608 220.082 270.492 215.76 270.605 215.456ZM139.603 218.484C140.204 218.662 140.192 212.442 139.553 214.852C139.393 215.44 139.402 218.393 139.603 218.484ZM93.4798 207.143C94.4257 205.967 94.325 210.041 93.8206 212.72C93.7069 213.314 92.7022 215.517 92.6654 212.946C93.7179 213.112 94.3439 209.096 93.4798 207.143ZM279.237 211.273C281.739 207.549 280.396 210.566 278.549 214.132C279.027 212.936 278.392 212.526 279.237 211.273ZM270.258 213.01C270.788 212.133 270.814 210.848 270.449 211.207C267.894 213.73 268.901 215.257 270.258 213.01ZM276.896 207.893C276.369 207.828 274.545 212.068 275.239 211.35C275.683 210.893 277.224 207.936 276.896 207.893ZM273.811 208.379C273.831 207.304 273.034 208.712 272.576 209.107C269.778 211.507 271.908 210.847 273.811 208.379ZM95.6888 204.196C96.1218 205.122 95.8047 207.974 95.6595 209.867C95.3184 209.42 95.6372 205.56 95.6888 204.196ZM283.697 202.393C283.473 203.733 281.145 207.29 280.039 208.807C280.198 207.388 282.572 204.152 283.697 202.393ZM94.8177 197.567C94.9309 188.722 97.5307 191.062 95.8275 202.36C95.7255 201.991 95.6236 201.623 95.5218 201.258C94.292 214.354 95.2485 202.16 95.3197 198.935C95.3435 197.705 94.8045 198.701 94.8138 197.575C94.8151 197.573 94.8164 197.569 94.8177 197.567ZM144.196 205.751C143.455 208.343 144.197 199.301 144.482 202.27C144.494 202.397 144.231 205.589 144.196 205.751ZM279.148 197.281C279.054 196.822 278.385 198.258 277.719 199.127L277.393 199.568C276.522 200.781 275.025 203.118 274.429 205.082C276.016 202.474 277.586 199.873 279.148 197.281ZM282.65 199.906C283.754 196.923 280.347 202.449 279.759 204.505C280.202 203.68 282.572 200.111 282.65 199.906ZM284.425 195.49C285.645 193.405 286.59 191.447 285.825 192.213C285.69 192.345 284.939 193.637 283.979 195.231C281.904 198.653 278.895 203.941 282.342 198.894C282.473 198.702 283.519 197.04 284.425 195.49ZM283.34 194.86C284.339 192.966 285.229 190.814 284.339 192.028C283.902 192.618 283.35 193.613 282.856 194.578C282.142 196.013 281.644 197.422 282.217 196.789C282.415 196.57 282.884 195.747 283.34 194.86ZM296.592 178.577C296.908 178.824 294.605 183.801 294.082 185.088C293.448 186.733 294.893 185.034 293.531 187.675C292.659 189.329 292.141 187.936 291.924 188.267C291.785 188.548 289.322 194.668 289.538 191.869C289.536 191.872 289.533 191.874 289.531 191.876C289.622 191.072 291.857 186.902 292.396 185.982C292.493 185.827 292.916 186.896 293.729 184.942C294.365 183.372 292.59 185.341 294.014 182.388C295.418 179.399 294.264 183.696 294.406 183.451C294.639 183.11 296.212 178.254 296.592 178.577ZM144.735 185.365C145.536 184.967 144.448 190.397 144.394 192.334C143.587 192.745 144.64 187.241 144.735 185.365ZM95.5472 191.659C95.0003 189.742 96.172 182.831 96.2816 186.149C96.2915 186.678 95.581 190.324 95.5472 191.659ZM142.262 184.303C142.441 183.088 141.574 182.092 141.515 182.219C140.95 183.45 141.768 185.488 142.262 184.303ZM237.114 183.793C235.441 187.525 241.798 177.059 239.416 180.002C239.297 180.155 237.193 183.618 237.114 183.793ZM146.015 175.334C146.31 175.677 145.761 179.212 145.718 180.459C145.318 179.597 145.755 177.058 146.015 175.334ZM96.6908 175.41C96.8693 174.907 97.1472 176.443 97.0765 177.112C96.8044 179.669 96.2045 176.802 96.6908 175.41ZM142.51 174.657C142.494 172.954 141.183 175.746 141.859 177.903C141.904 176.846 142.511 174.826 142.51 174.657ZM98.8529 163.272C102.16 154.711 98.3121 171.451 98.1986 176.111C97.8715 171.443 98.7634 165.387 96.9339 173.506C98.2373 161.466 98.4614 166.556 98.5648 166.09C98.7115 165.552 98.7126 163.625 98.8529 163.272ZM142.442 173.748C143.511 171.009 142.205 171.018 141.944 173.081C141.852 173.823 142.408 173.836 142.442 173.748ZM98.9329 173.458C98.6871 172.281 99.8604 170.616 99.8714 170.881C99.889 171.944 99.1249 174.364 98.9329 173.458ZM245.149 169.67C244.966 170.043 244.332 171.073 243.825 171.898C243.286 172.79 242.86 173.54 242.925 173.609C243.029 173.713 243.585 173.003 244.168 172.098C244.762 171.218 245.339 170.015 245.149 169.67ZM297.867 168.641C298.852 166.126 298.648 168.836 297.857 170.478C297.785 170.61 296.983 170.856 297.867 168.641ZM300.363 157.754C300.538 157.313 302.656 147.612 302.492 151.471C302.578 152.086 298.519 166.04 297.705 167.877C296.736 168.346 299.331 162.546 299.634 161.068C299.691 160.806 299.101 160.458 299.435 159.029L299.433 159.024C299.559 158.49 300.308 157.934 300.363 157.754ZM150.41 151.92C150.891 152.021 150.749 151.93 150.457 153.221C146.695 173.818 145.814 168.901 150.41 151.92ZM101.704 153.939C102.865 151.233 101.588 162.912 100.903 165.22C100.408 165.36 101.462 154.376 101.704 153.939ZM146.672 150.595C146.288 152.268 144.775 156.424 145.609 156.14C145.817 154.762 146.857 151.31 146.672 150.595ZM307.188 138.079C307.496 139.096 306.764 141.994 306.316 143.978C306.031 142.943 306.783 140.048 307.188 138.079ZM306.836 136.829C307.186 137.003 306.429 141.212 306.195 141.754C305.853 142.566 306.423 138.109 306.836 136.829ZM301.946 134.05C302.576 132.911 301.899 138.628 301.146 139.826C300.251 141.281 301.854 134.265 301.946 134.05ZM306.698 107.562C306.3 107.006 305.858 112.439 305.773 112.575C305.685 112.794 304.283 113.467 304.165 113.94C304.127 114.096 304.021 114.766 303.853 115.769C303.252 119.413 301.776 127.946 301.213 129.558C304.165 124.39 302.505 124.716 302.597 124.239C302.789 123.212 303.719 120.908 303.933 118.959C303.811 121.211 303.678 123.464 303.53 125.738C303.763 124.824 304.763 120.227 305.569 116.031C306.384 111.766 306.838 107.752 306.698 107.562ZM162.422 114.255C163.294 113.99 160.731 120.427 160.414 120.891C159.091 122.703 162.37 114.826 162.422 114.255ZM161.166 115.351C159.797 117.02 163.607 107.651 162.456 112.22C162.4 112.429 161.232 115.261 161.166 115.351ZM307.129 101.214C307.037 102.541 306.519 105.355 306.524 106.366C306.564 109.215 307.629 102.245 307.129 101.214ZM117.909 100.819C117.639 102.202 116.604 104.54 116.074 106.191C115.849 105.804 117.387 101.272 117.909 100.819ZM309.702 101.247C310.412 98.599 309.774 107.566 309.478 104.463C309.476 104.338 309.683 101.371 309.702 101.247ZM120.098 93.3167C119.456 95.5911 118.299 98.1597 117.501 100.48C117.54 99.4275 119.358 94.1286 120.098 93.3167ZM307.638 93.8733C307.176 95.3332 307.134 99.3558 307.661 98.1682C307.723 98.0596 308.032 94.4603 307.638 93.8733ZM164.419 98.3059C164.822 98.3962 166.1 94.8424 165.662 95.2083C165.515 95.3154 164.085 98.2294 164.419 98.3059ZM307.804 85.2913C308.001 84.0847 307.02 80.8931 306.803 82.8782C306.861 84.0438 307.781 85.4223 307.804 85.2913ZM306.067 81.6008C306.21 79.8913 304.667 71.3573 304.916 75.0217C304.992 75.3328 305.788 81.6922 306.067 81.6008ZM306.382 74.2385C306.393 73.2767 304.804 66.6466 304.779 68.6272C304.819 70.5792 306.466 75.6122 306.382 74.2385ZM178.414 69.2932C178.112 69.6345 177.637 70.3306 177.204 71.0305C176.603 72.0176 176.147 73.0516 176.867 72.2805C176.938 72.2034 177.229 71.7384 177.52 71.2375C178.059 70.3343 178.601 69.328 178.414 69.2932ZM303.482 65.2981C301.774 61.9098 304.17 69.1973 304.691 71.7991C305.139 71.8618 303.657 65.5383 303.482 65.2981ZM194.581 55.3674C193.432 56.7206 194.78 56.8604 193.111 57.8801C193.155 57.6758 193.2 57.4731 193.247 57.2708C191.331 59.2335 188.157 61.8845 184.881 66.6213C184.05 67.8209 185.642 66.8597 184.371 68.343C183.35 69.5428 181.718 70.7259 182.093 69.8733C182.192 69.6467 184.425 67.1482 185.243 65.925C187.663 62.3266 186.471 62.9229 186.612 62.6829C186.764 62.4391 188.638 60.8124 189.385 59.9641C191.272 57.8236 191.838 56.6665 194.581 55.3674ZM294.687 42.3655C296.818 43.6771 302.921 57.122 301.38 55.5325C300.501 54.0869 295.808 44.48 294.687 42.3655ZM207.282 49.0042C206.591 48.8397 209.995 47.7275 210.005 48.1838C209.996 48.3451 207.656 49.0105 207.562 49.0256C207.521 49.027 207.484 49.0222 207.451 49.0217C208.051 49.1642 200.315 52.3806 202.272 52.304C200.253 53.6578 202.159 51.2642 200.676 52.3684C200.175 52.7631 200.231 54.1988 197.201 55.1165C197.199 55.1178 197.197 55.119 197.195 55.1204C196.319 55.3953 197.031 54.5916 196.83 54.5706C196.78 54.5607 195.657 54.8975 195.333 54.8274C195.271 54.801 195.238 54.7599 195.253 54.6975C195.302 54.589 195.496 54.4073 195.936 54.1184C199.032 52.1536 196.727 54.827 198.437 53.8948C198.616 53.7657 201.664 51.4227 201.422 51.3801C201.39 51.3719 200.423 52.0076 200.223 52.0334C199.469 52.1222 199.588 51.5846 199.489 51.6106C199.261 51.6727 196.736 53.3628 195.074 54.4045C194.57 54.712 194.137 54.9291 193.88 54.8713C193.801 54.8537 194.188 54.4686 194.814 53.9827C196.962 52.3523 201.504 49.9372 201.796 49.9241C202.052 49.8847 202.442 51.0147 202.722 51.0188C202.855 50.9921 206.39 49.0739 206.922 49.0325C207.074 49.0115 207.193 49.0056 207.282 49.0042ZM195.92 50.7375C196.135 50.4418 194.214 50.9418 193.278 51.4807C193.138 51.5573 193.027 51.6387 192.964 51.719C192.544 52.2624 193.01 52.2456 193.623 52.0452C194.478 51.7055 195.653 51.0976 195.92 50.7375ZM142.305 49.967C142.174 50.2152 141.977 50.5405 141.71 50.9329C141.903 50.6164 142.108 50.2839 142.305 49.967ZM207.259 46.0061C204.041 47.2267 207.959 46.6461 203.457 47.7581C205.441 47.7571 208.291 46.7161 207.259 46.0061ZM226.16 45.3176C225.854 45.28 225.446 45.2632 225.412 45.2922C225.081 45.576 225.61 45.8293 225.958 45.9006C227.519 46.3811 229.427 46.88 229.862 46.6184C229.397 46.3591 227.639 45.7365 226.16 45.3176ZM212.365 44.8352C214.186 43.8881 209.923 44.5375 210.469 45.0833C210.536 45.094 212.298 44.8659 212.365 44.8352ZM220.451 44.3831C222.053 44.2113 223.709 42.3537 221.742 42.6077C221.52 42.6322 220.24 44.1162 220.451 44.3831ZM283.893 28.2034C284.976 29.334 288.258 32.5446 287.753 32.6038C286.009 30.7855 284.092 29.186 283.893 28.2034ZM278.055 27.6721C279.025 28.481 279.979 29.3093 280.926 30.1672C279.916 28.9862 279.94 28.3172 279.326 27.9231C279.116 27.7911 278.757 28.1254 278.055 27.6721ZM277.268 27.0266C275.594 25.462 272.521 22.4562 272.452 23.3489C272.455 23.3508 272.458 23.3528 272.46 23.3547C274.085 24.5191 275.689 25.7407 277.268 27.0266ZM277.366 25.3635C268.192 17.5011 275.109 23.5691 273.364 22.8088C274.704 23.6188 276.042 24.4717 277.366 25.3635ZM268.058 18.8791C267.847 18.7677 265.219 18.1043 265.393 18.2629C272.202 24.5702 269.564 19.6504 268.058 18.8791ZM171.614 16.2131C179.076 11.6615 189.612 7.25368 175.631 15.1467C176.557 14.3422 177.507 13.5487 178.463 12.7747C175.468 14.0772 171.991 16.2802 172.158 16.6633C172.102 16.6524 172.018 16.6579 171.902 16.6819C171.816 16.7035 171.714 16.7343 171.597 16.7756C171.28 16.8632 167.986 19.2594 166.53 20.2366C163.316 22.4221 166.609 19.3082 171.614 16.2131ZM172.158 16.6633C172.189 16.6696 172.209 16.6812 172.222 16.6985C172.191 16.6891 172.166 16.6839 172.158 16.6633ZM264.171 15.3616C261.868 13.595 257.062 11.4478 259.038 12.9856C259.468 13.2903 263.934 15.4919 264.171 15.3616ZM254.445 10.301C253.14 9.43825 248.334 7.46865 250.289 8.71118C251.146 9.24016 254.003 10.4517 254.445 10.301ZM182.456 9.12817C182.736 8.576 189.13 5.47922 189.679 5.90063C190.371 6.3857 183.679 8.57126 182.456 9.12817ZM209.679 0.887938C205.974 0.789269 218.518 -0.630184 214.476 0.334227C214.258 0.34827 209.869 0.857137 209.679 0.887938Z" fill="#1C1F57"/>
</svg>
